<?xml version="1.0" encoding="UTF-8" standalone="no"?>
<!-- Created with Inkscape (http://www.inkscape.org/) -->

<svg
   width="112.8643"
   height="112.86438"
   viewBox="0 0 112.8643 112.86438"
   version="1.1"
   id="svg1"
   xml:space="preserve"
   xmlns:xlink="http://www.w3.org/1999/xlink"
   xmlns="http://www.w3.org/2000/svg"
   xmlns:svg="http://www.w3.org/2000/svg"><defs
     id="defs1"><linearGradient
       id="linearGradient1"><stop
         style="stop-color:#00b4bd;stop-opacity:1;"
         offset="0"
         id="stop1" /><stop
         style="stop-color:#053c63;stop-opacity:1;"
         offset="1"
         id="stop2" /></linearGradient><linearGradient
       xlink:href="#linearGradient1"
       id="linearGradient2"
       x1="-129.13632"
       y1="89.469498"
       x2="-86.286781"
       y2="89.469498"
       gradientUnits="userSpaceOnUse" /></defs><g
     id="layer1"
     transform="translate(126.0305,-195.80826)"><g
       id="g3"
       transform="matrix(2.6339678,0,0,2.6339678,214.11041,16.580675)"
       style="fill:#f2f2f2"><path
         id="rect1"
         style="fill:url(#linearGradient2);stroke-width:0.453335"
         d="m -123.70087,68.044712 h 31.978657 c 3.011189,0 5.435429,2.424215 5.435429,5.435456 V 105.4588 c 0,3.01123 -2.42424,5.43548 -5.435429,5.43548 h -31.978657 c -3.01123,0 -5.43545,-2.42425 -5.43545,-5.43548 V 73.480168 c 0,-3.011241 2.42422,-5.435456 5.43545,-5.435456 z" /><path
         fill="currentColor"
         d="m -110.92424,79.830656 v 12.851587 q 0,0.435141 -0.31809,0.753073 -0.3181,0.318089 -0.75295,0.318089 v 9.638675 q 0,0.43459 -0.31808,0.75303 -0.3181,0.31808 -0.75306,0.31808 h -8.56763 q -0.43563,0 -0.7531,-0.31808 -0.31809,-0.3181 -0.31809,-0.75303 v -8.567668 l 4.16674,-14.608673 q 0.1176,-0.384927 0.51905,-0.384927 z m 5.35481,0 v 11.780632 h -4.28385 V 79.830656 Z m 12.851568,14.993548 v 8.567696 q 0,0.43459 -0.318113,0.75297 -0.318124,0.31808 -0.753,0.31808 h -8.567715 q -0.4346,0 -0.75306,-0.31808 -0.31809,-0.31809 -0.31809,-0.75297 v -9.638729 q -0.43458,0 -0.75302,-0.317751 -0.3181,-0.318115 -0.3181,-0.753047 V 79.830812 h 7.095189 q 0.401776,0 0.518908,0.384927 z M -110.38872,75.011328 v 3.748373 h -5.8904 v -3.748373 q 0,-0.234287 0.1509,-0.384934 0.15038,-0.150588 0.38482,-0.150588 h 4.8194 q 0.23467,0 0.38481,0.150588 0.15071,0.150563 0.15071,0.384934 m 11.24512,0 v 3.748373 h -5.89031 v -3.748373 q 0,-0.234287 0.15035,-0.384934 0.15069,-0.150588 0.38482,-0.150588 h 4.819399 q 0.234487,0 0.384831,0.150588 0.150849,0.150563 0.150849,0.384934"
         id="path1"
         style="fill:#f9f9f9;stroke-width:0.0167336" /></g></g></svg>
