<?xml version="1.0" encoding="UTF-8" standalone="no"?>
<!-- Created with Inkscape (http://www.inkscape.org/) -->

<svg
   width="183.68929"
   height="172.56973"
   viewBox="0 0 183.68929 172.56973"
   version="1.1"
   id="svg1"
   xml:space="preserve"
   xmlns:xlink="http://www.w3.org/1999/xlink"
   xmlns="http://www.w3.org/2000/svg"
   xmlns:svg="http://www.w3.org/2000/svg"><defs
     id="defs1"><linearGradient
       id="linearGradient4"><stop
         style="stop-color:#00b4bd;stop-opacity:1;"
         offset="0"
         id="stop4" /><stop
         style="stop-color:#053c63;stop-opacity:1;"
         offset="1"
         id="stop5" /></linearGradient><linearGradient
       xlink:href="#linearGradient4"
       id="linearGradient5"
       x1="-77.341309"
       y1="82.659637"
       x2="-88.742287"
       y2="82.659637"
       gradientUnits="userSpaceOnUse"
       gradientTransform="matrix(2.6302175,0,0,2.6302175,110.70651,-127.94339)" /></defs><g
     id="layer1"
     transform="translate(159.44702,-195.80826)"><g
       id="g3"
       transform="matrix(2.6339678,0,0,2.6339678,214.11041,16.580675)"
       style="fill:#f2f2f2"><path
         id="rect1"
         style="fill:#f9f9f9;stroke-width:0.453335"
         d="m -123.70087,68.044712 h 31.978657 c 3.011189,0 5.435429,2.424215 5.435429,5.435456 V 105.4588 c 0,3.01123 -2.42424,5.43548 -5.435429,5.43548 h -31.978657 c -3.01123,0 -5.43545,-2.42425 -5.43545,-5.43548 V 73.480168 c 0,-3.011241 2.42422,-5.435456 5.43545,-5.435456 z" /><path
         fill="currentColor"
         d="m -110.92444,79.83079 v 12.851587 q 0,0.435141 -0.31809,0.753073 -0.3181,0.318089 -0.75295,0.318089 v 9.638671 q 0,0.43459 -0.31808,0.75303 -0.3181,0.31808 -0.75306,0.31808 h -8.56763 q -0.43563,0 -0.7531,-0.31808 -0.31809,-0.3181 -0.31809,-0.75303 v -8.567664 l 4.16674,-14.608673 q 0.1176,-0.384927 0.51905,-0.384927 z m 5.35481,0 v 11.780632 h -4.28385 V 79.83079 Z m 12.851568,14.993548 v 8.567692 q 0,0.43459 -0.318113,0.75297 -0.318124,0.31808 -0.753,0.31808 h -8.567715 q -0.4346,0 -0.75306,-0.31808 -0.31809,-0.31809 -0.31809,-0.75297 v -9.638725 q -0.43458,0 -0.75302,-0.317751 -0.3181,-0.318115 -0.3181,-0.753047 V 79.830946 h 7.095189 q 0.401776,0 0.518908,0.384927 z M -110.38892,75.011462 v 3.748373 h -5.8904 v -3.748373 q 0,-0.234287 0.1509,-0.384934 0.15038,-0.150588 0.38482,-0.150588 h 4.8194 q 0.23467,0 0.38481,0.150588 0.15071,0.150563 0.15071,0.384934 m 11.24512,0 v 3.748373 h -5.89031 v -3.748373 q 0,-0.234287 0.15035,-0.384934 0.15069,-0.150588 0.38482,-0.150588 h 4.819399 q 0.234487,0 0.384831,0.150588 0.150849,0.150563 0.150849,0.384934"
         id="path1"
         style="fill:url(#linearGradient5);stroke-width:0.0167336" /><path
         style="font-size:6.19192px;font-family:Masque;-inkscape-font-specification:Masque;opacity:0.93898;fill:#f9f9f9;stroke-width:1.34248;stroke-opacity:0.828957"
         d="m -131.64234,126.56021 q -1.40156,0 -2.22316,0 -0.8216,0 -1.28878,0 -0.45108,0 -0.6605,0.0157 -0.20944,0 -0.37052,0.0156 l 0.67662,-2.46478 h 4.59126 l 0.9505,-2.85144 h -4.78462 v -0.0322 h -0.0156 q -1.40154,-0.0157 -2.36813,0.25782 -0.95047,0.27389 -1.64318,0.8216 -0.69275,0.53162 -1.22437,1.32102 -0.51551,0.78937 -1.04711,1.80427 -0.0484,0.0968 0.0484,0.14492 0.0965,0.0322 0.1772,-0.0156 0.0484,0 0.0806,-0.0484 0.27387,-0.32218 0.6444,-0.56383 0.38665,-0.25782 0.86993,-0.43498 l -2.59368,8.76373 h 3.64083 l 1.32098,-4.43019 h 4.52685 z m 0.22557,6.73386 h 3.64082 l 3.62469,-12.00178 h -3.59247 z m 14.69211,-10.74522 q -0.0645,-0.28999 -0.2417,-0.51551 -0.16104,-0.22557 -0.40275,-0.38664 -0.2417,-0.17717 -0.53161,-0.25784 -0.28997,-0.0965 -0.57995,-0.0965 h -3.60859 l -3.6086,12.00177 h 3.56027 l 2.51314,-8.34487 1.69151,8.34487 h 4.2852 l 3.59247,-12.00177 h -3.44748 l -2.1265,6.95942 z m 13.93495,10.74522 q 0.51551,0 0.9827,-0.17717 0.4833,-0.19332 0.90214,-0.49941 0.41885,-0.3222 0.77327,-0.72494 0.354414,-0.41886 0.644388,-0.85383 0.177213,-0.25782 0.386641,-0.78936 0.209416,-0.54775 0.434962,-1.22435 0.225547,-0.67661 0.434963,-1.43377 0.209414,-0.75716 0.370521,-1.44987 0.177214,-0.69274 0.273868,-1.25657 0.09667,-0.56385 0.09667,-0.88605 0,-0.4833 -0.177201,-0.93437 -0.177201,-0.45105 -0.499403,-0.78936 -0.547735,-0.56384 -1.272672,-0.77328 -0.708837,-0.22557 -1.482107,-0.22557 h -6.57279 l -3.52802,12.03399 z m -3.93078,-2.44868 2.12649,-7.39438 h 2.75476 q 0.22555,0 0.40275,0.11268 0.1772,0.0965 0.30608,0.27386 0.1289,0.16105 0.19331,0.37054 0.0805,0.20944 0.0805,0.40272 0,0.19332 -0.1128,0.6283 -0.0967,0.41886 -0.25776,0.96657 -0.1611,0.54775 -0.35442,1.15991 -0.19331,0.59605 -0.38663,1.1438 -0.1933,0.53162 -0.35441,0.95047 -0.16111,0.40275 -0.24166,0.54775 -0.14498,0.2417 -0.28997,0.40275 -0.12887,0.16104 -0.33831,0.25783 -0.19331,0.0968 -0.4994,0.14492 -0.28997,0.0322 -0.72494,0.0322 z m 19.444506,-4.89739 q -1.385441,0 -2.22315,0 -0.821598,-0.0156 -1.288777,-0.0156 -0.451081,0 -0.660509,0.0156 -0.193308,0 -0.338307,0.0157 0.144999,-0.20944 0.257761,-0.51554 0.112798,-0.32217 0.257748,-0.61216 0.161107,-0.28996 0.370535,-0.4994 0.225534,-0.20944 0.563841,-0.20944 h 5.122904 l 0.869925,-2.88367 h -6.927205 q -1.143792,0 -2.094263,0.3061 -0.934364,0.30609 -1.707634,0.86991 -0.773269,0.54775 -1.401552,1.32101 -0.612175,0.77327 -1.095471,1.70763 -0.04828,0.0968 0.04839,0.14492 0.09667,0.0322 0.177201,-0.0157 0.03227,0 0.08053,-0.0484 0.289975,-0.30607 0.563842,-0.45107 0.289975,-0.16104 0.547736,-0.2417 0.273867,-0.0806 0.515509,-0.12878 0.257761,-0.0484 0.483295,-0.1288 -0.499402,1.12768 -0.869924,2.31983 -0.354414,1.17601 -0.57995,2.40034 -0.112797,0.61219 -0.08053,1.3049 0.04828,0.69271 0.289975,1.28878 0.241653,0.59606 0.708842,1.01491 0.483282,0.41885 1.240445,0.4994 3.383055,0.37054 6.733886,-0.14491 l 0.853818,-2.98033 q -1.337112,0.25783 -2.722552,0.30609 -1.385443,0.0322 -2.754769,-0.17718 -0.225547,-0.0323 -0.402749,-0.24169 -0.177201,-0.20945 -0.144987,-0.43498 0.04828,-0.37053 0.161095,-0.74104 0.112798,-0.37054 0.193308,-0.74105 h 4.542956 z m 5.638428,1.54655 -5.799521,5.79952 h 3.318615 l 3.093077,-2.89977 0.644389,2.89977 h 3.318614 l -1.208233,-5.79952 6.186154,-6.2506 h -3.302506 l -3.463598,3.46361 -0.708832,-3.47972 h -3.447492 z"
         id="text1"
         aria-label="FINDEX" /></g></g></svg>
